<svg width="337" height="269" viewBox="0 0 337 269" fill="none" xmlns="http://www.w3.org/2000/svg">
<g clip-path="url(#clip0_2_2)">
<path d="M98.5391 254C91.1172 251.396 79.3333 245.927 63.1875 237.594C51.0781 231.344 39.3594 221.969 28.0312 209.469C19.6979 196.448 15.5312 184.404 15.5312 173.336V172.359C17.4844 156.604 24.776 143.844 37.4062 134.078C58.7604 117.672 85.5182 109.339 117.68 109.078C77.9661 123.661 54.9844 139.938 48.7344 157.906C47.4323 161.682 46.7812 165.328 46.7812 168.844C46.7812 174.833 48.8646 180.172 53.0312 184.859C64.2292 196.188 73.6693 203.74 81.3516 207.516C104.919 219.104 124.32 225.615 139.555 227.047L98.5391 254ZM20.0234 89.9375C23.4089 82.125 29.138 74.9635 37.2109 68.4531L46.3906 61.0312L90.9219 33.2969C98.3438 35.25 107.523 39.026 118.461 44.625C128.878 49.9635 138.643 57.0599 147.758 65.9141C156.872 74.7682 163.839 84.1432 168.656 94.0391C173.083 85.1849 178.552 77.1771 185.062 70.0156C188.188 66.5 192.094 62.9844 196.781 59.4688L237.797 32.5156C244.698 34.8594 256.482 40.3281 273.148 48.9219C285.258 55.1719 296.977 64.5469 308.305 77.0469C316.638 90.0677 320.805 102.112 320.805 113.18V114.156C318.852 130.042 311.56 142.802 298.93 152.438C277.445 168.844 250.688 177.177 218.656 177.438C259.021 163.635 282.914 147.685 290.336 129.586C291.898 125.81 292.68 122.099 292.68 118.453V118.062V117.672C292.68 112.203 290.401 106.865 285.844 101.656C278.682 93.1927 268.396 85.6406 254.984 79C232.068 67.6719 213.448 61.2917 199.125 59.8594C194.177 67.9323 189.685 80.1719 185.648 96.5781C182.523 109.339 180.961 120.406 180.961 129.781C180.961 134.208 181.286 138.44 181.938 142.477C183.76 154.065 188.578 165.719 196.391 177.438C204.464 189.417 215.727 198.857 230.18 205.758C242.68 211.747 261.885 217.672 287.797 223.531L287.992 223.336C290.076 220.081 291.117 214.417 291.117 206.344C291.117 201.266 290.271 194.625 288.578 186.422L316.312 197.359C312.797 205.302 307.068 212.464 299.125 218.844C293.135 223.661 290.141 226.135 290.141 226.266L245.609 254C237.927 252.177 228.682 248.401 217.875 242.672C207.068 236.812 197.302 229.716 188.578 221.383L185.648 218.453C186.169 222.229 186.755 225.745 187.406 229L188.969 236.031C180.115 237.073 172.172 238.896 165.141 241.5C153.812 245.667 145.349 249.833 139.75 254C144.698 218.844 147.172 183.883 147.172 149.117V143.844C147.172 129 144.828 117.672 140.141 109.859C131.938 97.75 120.609 88.3099 106.156 81.5391C93.1354 75.4193 73.9948 69.4948 48.7344 63.7656L48.3438 63.9609C46.2604 67.2161 45.2188 72.8802 45.2188 80.9531C45.2188 86.0312 46.0651 92.6719 47.7578 100.875L20.0234 89.9375Z" fill="#942822"/>
</g>
<defs>
<clipPath id="clip0_2_2">
<rect width="337" height="269" fill="white"/>
</clipPath>
</defs>
</svg>
